# xmcd
#
# Track frame offsets: 
#        150
#        24467
#        38122
#        68582
#        78032
#        91380
#        114447
#        152767
#        173232
#        186925
#        209042
#        224770
#        253827
#        275982
#        303417
#        336850
#
# Disc length: 4795 seconds
#
# Revision: 1
# Processed by: cddbd v1.5.1PL0 Copyright (c) Steve Scherf et al.
# Submitted via: ExactAudioCopy v0.95a5
#
DISCID=ec12b910
DTITLE=Yo-C - Launch Party - Techno Flight 3.0
DYEAR=2003
DGENRE=Dance
TTITLE0=Bad Pimps - Get On Up !
TTITLE1=Paul Mac - Corner Of The Table
TTITLE2=Elektrochemie LK - When I Rock (Live Version)
TTITLE3=Paul Mac - Cards On The Table
TTITLE4=Smith and Selway - Move (Adam Beyer and Llenk Remix)
TTITLE5=Sharp Boys - The Race Track
TTITLE6=Marmion - Shoneberg (Moon Men Over Marmion Remix)
TTITLE7=Salt and Soda/This House Is Mine (Rookie's Diamond Vocal Mix)
TTITLE8=Buster Hymen and The Penetrator - Rocket Fuel
TTITLE9=Bad Pimps - Give.It
TTITLE10=Quartz - The Calling
TTITLE11=The Fabulous 23's - Under The Wheels
TTITLE12=Paul Maddox - Tension (Freak Remix)
TTITLE13=Rachel Auburn And Micky Modelle - Bang The Drum
TTITLE14=DJ Misjah and DJ Tim - Access
TTITLE15=Data
EXTD=
EXTT0=
EXTT1=
EXTT2=
EXTT3=
EXTT4=
EXTT5=
EXTT6=
EXTT7=
EXTT8=
EXTT9=
EXTT10=
EXTT11=
EXTT12=
EXTT13=
EXTT14=
EXTT15=
PLAYORDER=
